<?xml version="1.0" encoding="UTF-8"?>
<svg width="320px" height="268px" viewBox="0 0 320 268" version="1.1" xmlns="http://www.w3.org/2000/svg" xmlns:xlink="http://www.w3.org/1999/xlink">
    <title>CTEMT_Logo light</title>
    <g id="CTEMT_Logo-light" stroke="none" stroke-width="1" fill="none" fill-rule="evenodd">
        <g id="Group">
            <path d="M1.4472007,206.243716 C1.4472007,227.839414 -6.13099783,258.784287 17.2809625,264.474922 C34.8221073,268.738561 74.335692,270.32743 80.9638455,250.495 C86.6939849,233.353722 83.9960885,197.694275 67.3279058,192.264758 C55.490885,188.408694 1.4472007,185.808114 1.4472007,206.243716" id="Fill-1" fill="#000000"></path>
            <path d="M57.5175834,234.593598 C57.8316956,236.638218 58.6179397,238.367763 60.0333719,239.467155 C61.4468769,240.567512 63.1764213,241.1967 65.3780975,241.1967 C66.7925661,241.1967 68.2079982,240.88066 69.307391,240.252436 C70.5648035,239.623248 71.3510476,238.838931 72.1372917,237.738575 L79.2105982,237.738575 C77.9522222,240.725531 76.2236414,243.081373 73.8658726,244.810918 C71.5090673,246.538535 68.678203,247.326706 65.5341901,247.326706 C63.4905335,247.326706 61.6048966,247.01163 59.7173326,246.22635 C57.9887517,245.598125 56.417227,244.497769 55.0027584,242.925281 C53.745346,241.667868 52.6449896,239.938324 51.8587455,238.209743 C51.2295575,236.322179 50.7583891,234.593598 50.7583891,232.550905 C50.7583891,230.663341 51.2295575,228.776741 51.8587455,227.050087 C52.4879335,225.318615 53.5882899,223.747091 54.8466659,222.489678 C56.2601709,220.91719 57.8316956,219.659778 59.7173326,218.874497 C61.4468769,218.088253 63.3344409,217.617084 65.2200779,217.617084 C67.7349028,217.617084 69.936579,218.245309 72.1372917,219.345665 C74.1809483,220.445058 76.0665853,222.017546 77.4820174,224.062166 C78.4243541,225.162523 79.0545056,226.576991 79.525674,228.150443 C79.9978059,229.563948 80.1538984,231.293493 80.1538984,233.17913 L80.1538984,233.96441 L80.1538984,234.593598 L57.5175834,234.593598 Z M73.0796284,229.405929 C72.6084601,227.521255 71.6651599,226.103896 70.2516548,225.162523 C68.9932788,224.216332 67.2637344,223.747091 65.2200779,223.747091 C63.4905335,223.747091 61.9190088,224.216332 60.6615963,225.318615 C59.2471277,226.420899 58.3038275,227.676384 57.8316956,229.405929 L73.0796284,229.405929 Z" id="Fill-3" fill="#0096FF"></path>
            <path d="M36.1739462,238.523084 L36.1739462,209.441687 L42.7751207,209.441687 L42.7751207,218.559614 L47.0223806,218.559614 L47.0223806,224.376471 L42.7751207,224.376471 L42.7751207,238.523084 C42.7751207,240.096536 43.4062358,240.881817 45.1338531,240.881817 L47.0223806,240.881817 L47.0223806,246.697711 L44.5056286,246.697711 C40.1051668,246.697711 36.1739462,244.181922 36.1739462,238.523084" id="Fill-5" fill="#0096FF"></path>
            <path d="M17.3275975,217.93216 C24.2448114,217.93216 29.9036493,222.646734 31.475174,228.933797 L24.7159798,228.933797 C23.4576038,226.262879 20.6286666,224.375315 17.3275975,224.375315 C12.7700795,224.375315 9.15393472,227.990496 9.15393472,232.550905 C9.15393472,237.109387 12.7700795,240.725531 17.3275975,240.725531 C20.6286666,240.725531 23.4576038,238.838931 24.7159798,236.16705 L31.475174,236.16705 C29.9036493,242.453149 24.2448114,247.16965 17.3275975,247.16965 C9.31099084,247.16965 2.70885272,240.567512 2.70885272,232.550905 C2.70885272,224.534298 9.31099084,217.93216 17.3275975,217.93216" id="Fill-7" fill="#0096FF"></path>
            <path d="M230.646997,232.939402 L230.646997,247.327862 L237.199995,247.327862 L237.199995,232.618545 C237.199995,227.345121 238.639515,224.946884 244.23476,224.46608 L244.23476,218.232012 C235.282561,218.232012 230.646997,224.946884 230.646997,232.939402" id="Fill-63" fill="#FFFFFF"></path>
            <path d="M155.872387,240.773805 C151.235859,240.773805 147.559975,237.097921 147.559975,232.460429 C147.559975,227.825828 151.235859,224.148017 155.872387,224.148017 C160.507951,224.148017 164.183835,227.825828 164.183835,232.460429 C164.183835,237.097921 160.507951,240.773805 155.872387,240.773805 L155.872387,240.773805 Z M170.572068,247.195762 L170.572068,232.939306 L170.572068,232.460429 C170.572068,224.307964 163.941024,217.594056 155.788559,217.594056 C147.637058,217.594056 140.963618,224.307964 140.963618,232.460429 C140.963618,240.612894 147.699687,247.327766 155.852153,247.327766 C158.889213,247.327766 162.054424,246.369049 164.183835,244.770545 L164.183835,247.195762 L170.572068,247.195762 Z" id="Fill-64" fill="#FFFFFF"></path>
            <path d="M262.783376,240.773805 C258.146848,240.773805 254.470964,237.097921 254.470964,232.460429 C254.470964,227.825828 258.146848,224.148017 262.783376,224.148017 C267.41894,224.148017 271.095788,227.825828 271.095788,232.460429 C271.095788,237.097921 267.41894,240.773805 262.783376,240.773805 M262.699549,217.594056 C254.548047,217.594056 247.873644,224.307964 247.873644,232.460429 C247.873644,240.612894 254.609713,247.327766 262.762178,247.327766 C265.800203,247.327766 268.965413,246.369049 271.094824,244.770545 L271.094824,247.195762 L277.483058,247.195762 L277.483058,232.939306 L277.483058,232.460429 C277.483058,224.307964 270.852977,217.594056 262.699549,217.594056" id="Fill-65" fill="#FFFFFF"></path>
            <path d="M199.941851,229.102223 C200.422655,227.343772 201.380408,226.067089 202.818965,224.945535 C204.097576,223.825908 205.697043,223.347995 207.455493,223.347995 C209.532873,223.347995 211.292287,223.825908 212.570898,224.786552 C214.009455,225.746232 214.968171,227.185753 215.448975,229.102223 L199.941851,229.102223 Z M219.923629,223.668852 C218.485072,221.589544 216.567639,219.991041 214.489295,218.872377 C212.251004,217.753714 210.012714,217.113927 207.455493,217.113927 C205.53806,217.113927 203.616772,217.593767 201.859285,218.393501 C199.941851,219.191307 198.344311,220.470881 196.905754,222.070348 C195.625217,223.347995 194.50559,224.945535 193.86773,226.706876 C193.227943,228.462436 192.749067,230.381796 192.749067,232.300193 C192.749067,234.378537 193.227943,236.136024 193.86773,238.055385 C194.6665,239.813835 195.787091,241.571322 197.064738,242.851859 C198.503294,244.449399 200.100835,245.568063 201.859285,246.20785 C203.778646,247.005656 205.697043,247.327477 207.775387,247.327477 C210.97143,247.327477 213.850471,246.52678 216.247745,244.768329 C218.644055,243.009879 220.401542,240.614532 221.681116,237.575545 L214.489295,237.575545 C213.690525,238.695172 212.889827,239.492978 211.611217,240.132765 C210.492554,240.772552 209.053997,241.092445 207.61544,241.092445 C205.377149,241.092445 203.616772,240.453622 202.181105,239.333995 C200.740621,238.215331 199.941851,236.456881 199.621958,234.378537 L222.64176,234.378537 L222.64176,233.737787 L222.64176,232.939017 C222.64176,231.021583 222.482777,229.263133 222.001973,227.825539 C221.521169,226.225109 220.882346,224.786552 219.923629,223.668852 L219.923629,223.668852 Z" id="Fill-66" fill="#FFFFFF"></path>
            <path d="M183.31433,209.440146 L176.601385,209.440146 L176.601385,239.012945 C176.601385,244.768137 180.600053,247.326321 185.074707,247.326321 L187.631928,247.326321 L187.631928,241.412146 L185.712567,241.412146 C183.956044,241.412146 183.31433,240.61434 183.31433,239.012945 L183.31433,224.628339 L187.631928,224.628339 L187.631928,218.712238 L183.31433,218.712238 L183.31433,209.440146 Z" id="Fill-67" fill="#FFFFFF"></path>
            <path d="M135.088659,247.32661 L135.088659,230.701786 C135.088659,223.827931 129.491488,218.074667 122.460577,218.074667 C118.782766,218.074667 115.426775,219.673171 113.188485,222.228464 C110.948267,219.673171 107.592277,218.074667 103.916393,218.074667 C96.8835546,218.074667 91.2863829,223.827931 91.2863829,230.701786 L91.2863829,247.32661 L98.0022181,247.32661 L98.0022181,230.541839 C98.0022181,227.346759 100.558475,224.626701 103.916393,224.626701 C107.1134,224.626701 109.829604,227.346759 109.829604,230.541839 L109.829604,230.701786 L109.829604,247.32661 L116.545439,247.32661 L116.545439,230.701786 L116.545439,230.541839 C116.545439,227.346759 119.261642,224.626701 122.460577,224.626701 C125.816567,224.626701 128.533734,227.346759 128.533734,230.541839 L128.533734,247.32661 L135.088659,247.32661 Z" id="Fill-68" fill="#FFFFFF"></path>
            <path d="M152.527381,100.196054 C150.958746,104.28144 148.577853,108.323467 145.658343,111.565761 C139.622764,118.26907 131.627355,117.947249 125.427974,111.405814 C120.058196,105.738304 117.34392,98.7372628 116.677154,91.2101316 C114.920631,71.4104619 120.1083,53.7382764 134.036191,39.0723184 C134.454365,38.6319832 134.97371,38.2889649 135.806204,37.6048554 C144.848974,46.399998 150.789164,56.5941926 153.366619,68.5632176 C155.639597,79.1245188 156.49907,89.8525115 152.527381,100.196054 M245.468951,67.2036705 C246.27832,66.4858373 247.198495,65.8932636 248.479996,64.9316562 C252.583689,73.6815127 254.676486,82.3648852 255.777806,91.2515635 C258.114377,110.104079 256.280771,128.530712 249.074497,146.221204 C245.379342,155.290954 240.498077,163.680449 233.012377,170.233447 C227.594423,174.976927 221.644598,178.825283 214.073144,175.970331 C206.050756,172.943869 202.327659,166.330169 201.003763,158.236479 C198.744274,144.418431 202.575287,131.561028 207.790899,119.064949 C216.23917,98.8316891 229.108136,81.7270254 245.468951,67.2036705 M150.267892,26.4837407 C177.303706,9.39256645 217.134293,17.8485449 239.19056,49.2616953 C238.196193,50.1269493 237.181591,51.0162916 236.159281,51.895035 C214.241763,70.6878111 197.753761,93.3221991 188.260056,120.69814 C183.011684,135.829485 180.370636,151.324083 184.947425,167.235891 C192.514061,193.541345 220.285051,202.68047 241.867259,185.933277 C248.746895,180.593369 254.260239,173.994122 258.597108,166.481444 C274.410636,139.086232 277.618242,109.709993 271.491126,79.1389718 C269.794342,70.6762487 266.553976,62.5218566 263.876313,53.7479118 C266.22252,52.4375049 269.041822,50.9006674 271.821618,49.2992732 C276.360829,46.6852042 277.97764,41.8819849 275.834739,37.5133197 C273.72749,33.2198101 268.757579,31.440162 264.091181,33.5050163 C261.592737,34.6101903 259.142468,35.8984359 256.867564,37.4015497 C254.729481,38.8131276 253.606963,38.2696942 251.959319,36.4524682 C247.117558,31.1087061 242.360589,25.5760912 236.87326,20.9453446 C207.911341,-3.48988928 169.008637,-6.74567221 137.934651,12.8208221 C135.909302,14.0965417 134.612384,13.4201405 132.927163,12.3881951 C114.485113,1.08786294 94.5707828,-2.49648525 73.4000036,1.69681672 C52.1078192,5.91517058 35.4646884,17.7801339 22.5090041,34.7229239 C2.72860517,60.5909335 -3.45439545,89.9941511 1.76796132,121.850527 C4.4600766,138.270118 10.8743255,153.353287 20.1772507,167.162662 C22.8317881,171.105445 26.9056118,172.400436 30.9254776,170.835656 C34.921255,169.279548 37.2568625,165.250046 36.2711668,160.8756 C35.8491387,159.00538 34.7285481,157.228622 33.6667331,155.576161 C12.1394462,122.059614 12.3196272,79.8404249 34.165844,48.5708411 C51.207878,24.1789663 76.8590924,13.4220676 104.129045,19.3574398 C110.178114,20.6745914 116.001716,22.7086127 121.329098,26.2746537 C120.742306,27.0878768 120.422412,27.625529 120.01291,28.0822444 C104.021129,45.9413556 97.2657887,66.9724222 98.8912713,90.7119842 C99.7295463,102.949835 103.777355,114.106601 112.26802,123.226455 C120.726889,132.314512 131.156186,136.215863 143.371876,132.982241 C155.811106,129.690807 163.733286,120.790639 167.977656,109.237861 C177.640943,82.9343341 172.879155,58.3526429 157.36336,35.523621 C155.218532,32.3680456 152.651676,29.49864 150.267892,26.4837407" id="Fill-69" fill="#FFFFFF"></path>
            <path d="M306.031331,11.8806722 C297.979074,11.8652849 291.850031,17.9413332 291.83846,25.9502317 C291.829797,33.8791567 298.115896,40.2182499 305.990863,40.2192135 C313.597967,40.2192135 319.951514,33.8521778 319.99969,26.1776258 C320.049794,18.0733375 314.013251,11.8951545 306.031331,11.8806722" id="Fill-70" fill="#FFFFFF"></path>
        </g>
    </g>
</svg>